<?xml version="1.0" encoding="utf-8"?>
<!-- Generator: Adobe Illustrator 26.5.0, SVG Export Plug-In . SVG Version: 6.00 Build 0)  -->
<svg version="1.1" id="Layer_1" xmlns="http://www.w3.org/2000/svg" xmlns:xlink="http://www.w3.org/1999/xlink" x="0px" y="0px"
	 viewBox="0 0 200 200" style="enable-background:new 0 0 200 200;" xml:space="preserve">
<style type="text/css">
	.st0{fill:#27AAE1;}
	.st1{fill:#FFFFFF;}
	.st2{fill:#F9F06C;}
</style>
<path class="st0" d="M59.15,59.05h36.49c19.33,0,31.99,10.26,27.48,31.5c-4.5,21.15-21.9,32.91-41.17,32.91H67.25l-3.65,17.18
	c-3.45,15.92-15.44,21.69-26.46,21.92L59.15,59.05z M70.92,106.2h7.38c9.13,0,19.19-3.35,21.64-14.89
	c2.48-11.66-6.15-15.01-15.28-15.01h-7.38L70.92,106.2z"/>
<path class="st0" d="M59.15,59.05h36.49c19.33,0,31.99,10.26,27.48,31.5c-4.5,21.15-21.9,32.91-41.17,32.91H67.25l-3.65,17.18
	c-3.45,15.92-15.44,21.69-26.46,21.92L59.15,59.05z M70.92,106.2h7.38c9.13,0,19.19-3.35,21.64-14.89
	c2.48-11.66-6.15-15.01-15.28-15.01h-7.38L70.92,106.2z"/>
<path class="st0" d="M87.59,163.49l63.06-103.45h20.4l19.09,103.51h-23.51l-3.11-21.08h-40.35l-0.37,0.58
	C115.02,155.39,98.05,162.75,87.59,163.49z M160.34,123.29l-5.24-32.59h-1.53l-19.09,32.59H160.34z"/>
<path class="st0" d="M87.59,163.49l63.06-103.45h20.4l19.09,103.51h-23.51l-3.11-21.08h-40.35l-0.37,0.58
	C115.02,155.39,98.05,162.75,87.59,163.49z M160.34,123.29l-5.24-32.59h-1.53l-19.09,32.59H160.34z"/>
<path class="st1" d="M38.94,114.43c-0.37-0.35-0.9-0.76-1.42-1.16c-1.73-1.34-3.88-3-4.87-5.72c-2.16-5.89-3.99-11.94-5.76-17.79
	c-0.58-1.93-1.16-3.83-1.75-5.74l-0.04-0.13c-0.35-1.11-0.99-3.18-0.09-5.38c0.21-0.51,0.34-0.92,0.43-1.24
	c-0.64-0.1-1.71-0.22-3.46-0.33c-1.65-0.1-3.18-0.3-5.3-0.59c-1.11-0.15-2.38-0.32-3.91-0.5L1.52,74.47l17.73-15.22
	c10.42-8.95,20.26-17.41,30.11-25.73c2.11-1.78,5.09-2.89,7.79-2.89c0.21,0,0.41,0.01,0.61,0.02c13.07,0.83,26.27,1.8,40.25,2.82
	l24.4,1.78l-9.2,7.9c-2.96,2.54-5.8,4.82-8.54,7.03c-5.67,4.56-10.51,8.45-14.5,13.01c-9.92,11.33-21.34,16.84-34.89,16.84
	c-4.04,0-8.32-0.51-12.73-1.53c-1.15-0.26-2.4-0.38-3.75-0.45l0.54,1.38c3.09,7.82,5.99,15.15,8.64,22.66
	c0.99,2.79,0.31,5.47-0.23,7.63c-0.17,0.68-0.33,1.31-0.4,1.8l-1.37,9.57L38.94,114.43z"/>
<path class="st1" d="M40.32,112.98c-0.43-0.41-0.99-0.84-1.57-1.29c-1.6-1.24-3.42-2.64-4.22-4.83c-2.14-5.84-3.96-11.87-5.73-17.7
	c-0.58-1.91-1.16-3.82-1.75-5.73l-0.04-0.14c-0.31-0.99-0.78-2.49-0.15-4.03c0.88-2.18,0.78-3.15,0.67-3.33
	c-0.43-0.69-3.94-0.9-5.43-1c-1.57-0.1-3.08-0.3-5.17-0.58c-1.1-0.15-2.38-0.32-3.92-0.51l-6.75-0.82l14.29-12.27
	c10.42-8.95,20.26-17.41,30.09-25.72c1.74-1.47,4.29-2.42,6.5-2.42c0.16,0,0.32,0.01,0.48,0.02c13.06,0.83,26.27,1.8,40.25,2.82
	l19.54,1.42l-5.52,4.74c-2.96,2.54-5.8,4.82-8.55,7.03c-5.68,4.57-10.59,8.52-14.7,13.2C79.12,72.73,68.2,78.02,55.26,78.02
	c-3.88,0-8.02-0.5-12.28-1.48c-2.13-0.49-4.47-0.53-7.17-0.58c0.56,1.41,1.11,2.81,1.66,4.19c3.07,7.76,5.97,15.09,8.62,22.59
	c0.79,2.22,0.22,4.48-0.29,6.48c-0.18,0.72-0.35,1.41-0.44,2l-0.82,5.74L40.32,112.98z"/>
<path class="st2" d="M31.35,72.83c4.24,10.86,8.32,20.8,11.9,30.92c0.71,2-0.53,4.68-0.87,7.05c-1.73-1.64-4.3-2.97-5.04-4.97
	c-2.8-7.64-5.02-15.5-7.42-23.28c-0.21-0.69-0.52-1.57-0.28-2.15c2.07-5.1,0.55-7-2.26-7.8"/>
<path d="M25.83,72.27c-1.11-0.17-2.32-0.24-3.55-0.32c-2.27-0.14-4.52-0.53-8.91-1.06c14.09-12.1,26.59-22.89,39.2-33.54
	c1.24-1.05,3.26-1.8,4.85-1.7c16.73,1.07,33.46,2.33,52.5,3.71c-9.01,7.74-17.22,13.31-23.55,20.53
	C74.62,73.32,60.7,77.54,43.64,73.62c-3.66-0.84-7.6-0.52-12.3-0.79"/>
<path d="M27.38,72.59c-0.48-0.14-1-0.24-1.55-0.32"/>
<rect x="41.67" y="47.04" transform="matrix(-0.5732 -0.8194 0.8194 -0.5732 14.7071 134.7998)" class="st2" width="1.58" height="33.05"/>
<path d="M69.7,99.42c0.16,0.42,0.33,0.84,0.49,1.26"/>
<circle class="st2" cx="56.64" cy="53.76" r="1"/>
</svg>
