<?xml version="1.0" encoding="utf-8"?>
<!-- Generator: Adobe Illustrator 26.5.0, SVG Export Plug-In . SVG Version: 6.00 Build 0)  -->
<svg version="1.1" id="Layer_1" xmlns="http://www.w3.org/2000/svg" xmlns:xlink="http://www.w3.org/1999/xlink" x="0px" y="0px"
	 viewBox="0 0 320 160" style="enable-background:new 0 0 320 160;" xml:space="preserve">
<style type="text/css">
	.st0{fill:#27AAE1;}
	.st1{fill:#FFFFFF;}
	.st2{fill:#F9F06C;}
</style>
<path class="st0" d="M6.77,136.66l28.13-46.15h9.1l8.52,46.18H42.04l-1.39-9.41h-18l-0.16,0.26
	C19.01,133.05,11.44,136.33,6.77,136.66z M39.23,118.73l-2.34-14.54h-0.68l-8.52,14.54H39.23z"/>
<path class="st0" d="M67.41,136.26H58.3l3.39-15.93c2.03-9.56,7.44-13.31,17.82-13.31c10.38,0,14.2,3.75,12.16,13.31l-3.39,15.93
	h-9.12l2.87-13.48c1.24-5.84,0.19-8.41-4.09-8.41c-4.28,0-6.42,2.57-7.67,8.41L67.41,136.26z"/>
<path class="st0" d="M98.24,122.52c1.83-8.59,9.12-15.51,17.05-15.51c3.65,0,6.35,1.31,8.05,3.63l0.54,0.73l0.74-3.48h9.24
	l-3.93,18.49c-1.93,8.86-4.52,10.61-11.39,10.7l0.72-3.4h-0.7l-0.15,0.14c-2.49,2.37-6.01,4.14-9.68,4.14
	C100.77,137.97,96.41,131.11,98.24,122.52z M107.95,122.52c-0.95,4.46,1.16,7.69,5.27,7.69c3.96,0,7.55-3.23,8.5-7.69
	c0.96-4.53-1.42-7.75-5.22-7.75C112.66,114.77,108.91,117.99,107.95,122.52z"/>
<path class="st0" d="M139.18,136.26l10.24-48.17h9.24l-10.24,48.17H139.18z"/>
<path class="st0" d="M186.77,108.72h10.51l-31.14,43.21h-10.39l13.65-18.96l-8.21-24.25h10.5l4.83,15.52L186.77,108.72z"/>
<path class="st0" d="M208.23,108.1l2.36-11.12h8.43l-2.38,11.18h6.07c-0.91,3.3-0.79,6.99-7.18,7.02l-0.38,0l-2.12,9.98
	c-0.6,2.82-0.29,4.6,1.69,4.6c0.94,0,1.87-0.4,2.41-0.68l0.69,7.27c-1.03,0.45-3.97,1.61-7.23,1.61c-6.87,0-7.48-5.76-6.37-10.98
	l2.53-11.91h-4.22l1.49-6.99H208.23z"/>
<path class="st0" d="M227.07,136.26l6.19-29.13h9.41l-6.19,29.13H227.07z M235.74,97.35c0.53-2.51,3.02-4.59,5.39-4.59
	s3.98,2.08,3.44,4.59s-3.02,4.59-5.39,4.59C236.81,101.94,235.21,99.86,235.74,97.35z"/>
<path class="st0" d="M265.54,114.42c-3.76,0-7.59,3.58-8.53,8.04c-0.96,4.51,1.34,8.1,5.1,8.1c2.26,0,4.12-0.79,4.91-1.18l1.72,6.26
	c-1.06,0.61-4.52,2.34-9.57,2.34c-7.6,0-13.63-6.87-11.82-15.39c1.83-8.58,10.75-15.57,18.4-15.57c5.09,0,7.81,1.84,8.56,2.44
	l-4.36,6.16C269.25,115.17,267.77,114.42,265.54,114.42z"/>
<path class="st0" d="M277.2,122.52c1.83-8.59,9.12-15.51,17.05-15.51c3.65,0,6.35,1.31,8.05,3.63l0.54,0.73l0.74-3.48h9.24
	l-3.93,18.49c-1.93,8.86-4.52,10.61-11.39,10.7l0.72-3.4h-0.7l-0.15,0.14c-2.49,2.37-6.01,4.14-9.68,4.14
	C279.74,137.97,275.38,131.11,277.2,122.52z M286.92,122.52c-0.95,4.46,1.16,7.69,5.27,7.69c3.96,0,7.55-3.23,8.5-7.69
	c0.96-4.53-1.42-7.75-5.22-7.75C291.63,114.77,287.88,117.99,286.92,122.52z"/>
<g>
	<path class="st0" d="M115.61,55.55c1.93-9.09,10.77-15.51,20.05-15.51c9.11,0,15.23,6.41,13.3,15.51
		C147.04,64.53,138.57,71,129.08,71C119.14,71,113.69,64.54,115.61,55.55z M125.34,55.55c-0.95,4.46,1.18,7.69,5.33,7.69
		c3.99,0,7.6-3.23,8.55-7.69c0.96-4.53-1.44-7.75-5.26-7.75C130.08,47.8,126.3,51.02,125.34,55.55z"/>
	<path class="st0" d="M190.9,40.9l-16.26,13.54l11.59,14.85h-11.57L165.52,57l-2.61,12.29h-9.13l6.1-28.7
		c2.58-11.9,10.47-18.45,13.2-19.37l-6.48,30.49L179,40.9H190.9z"/>
	<path class="st0" d="M221.49,56.66h-20.53l-0.09,0.44c-1.06,5,2.43,6.71,4.99,6.71c3.08,0,4.78-0.7,7.53-3.15l5.87,3.3
		c-4.36,5.12-9.7,7.04-15.63,7.04c-8.19,0-13.73-6.97-11.93-15.45c1.81-8.54,10.32-15.51,18.51-15.51c8.29,0,13.72,5.25,11.51,15.64
		C221.66,55.95,221.55,56.44,221.49,56.66z M202.33,51.33h11.47l0.04-0.49c0.24-3.28-1.58-5.1-4.57-5.1c-3.49,0-6.01,2.23-6.81,5.13
		L202.33,51.33z"/>
	<path class="st0" d="M226.73,69.26l6.03-28.37h9.23l-0.9,4.22h0.7l0.16-0.2c0,0,3.81-4.87,8.86-4.87c2.87,0,4.84,1.12,5.5,1.55
		l-5.47,7.75c-0.69-0.51-2.23-1.38-4.58-1.38c-5.05,0-6.8,5.69-7.07,6.23l-0.03,0.06l-0.01,0.06
		C236.38,66.49,229.59,68.99,226.73,69.26z"/>
</g>
<path class="st0" d="M87.63,25.26h16.81c8.9,0,14.74,4.73,12.66,14.51c-2.07,9.74-10.09,15.16-18.96,15.16h-6.77l-1.68,7.91
	c-1.59,7.33-7.11,9.99-12.19,10.09L87.63,25.26z M93.06,46.98h3.4c4.21,0,8.84-1.54,9.97-6.86c1.14-5.37-2.83-6.92-7.04-6.92h-3.4
	L93.06,46.98z"/>
<path class="st1" d="M78.96,50.1c-0.2-0.19-0.45-0.39-0.72-0.59c-0.74-0.57-1.57-1.22-1.94-2.22c-0.99-2.69-1.83-5.47-2.64-8.15
	c-0.27-0.88-0.53-1.76-0.8-2.64l-0.02-0.06c-0.14-0.46-0.36-1.15-0.07-1.86c0.41-1,0.36-1.45,0.31-1.53
	c-0.2-0.32-1.81-0.42-2.5-0.46c-0.72-0.04-1.42-0.14-2.38-0.26c-0.51-0.07-1.1-0.15-1.81-0.23l-3.11-0.38l6.58-5.65
	c4.8-4.12,9.33-8.02,13.86-11.84c0.8-0.68,1.98-1.11,2.99-1.11c0.08,0,0.15,0,0.22,0.01c6.02,0.38,12.1,0.83,18.54,1.3l9,0.65
	l-2.54,2.18c-1.36,1.17-2.67,2.22-3.94,3.24c-2.62,2.1-4.88,3.92-6.77,6.08C96.83,31.56,91.8,34,85.84,34
	c-1.79,0-3.69-0.23-5.66-0.68c-0.98-0.22-2.06-0.25-3.3-0.27c0.26,0.65,0.51,1.29,0.76,1.93c1.41,3.57,2.75,6.95,3.97,10.4
	c0.36,1.02,0.1,2.06-0.13,2.98c-0.08,0.33-0.16,0.65-0.2,0.92l-0.38,2.65L78.96,50.1z"/>
<path class="st2" d="M74.83,31.61c1.95,5,3.83,9.58,5.48,14.24c0.33,0.92-0.24,2.16-0.4,3.25c-0.8-0.75-1.98-1.37-2.32-2.29
	c-1.29-3.52-2.31-7.14-3.42-10.72c-0.1-0.32-0.24-0.72-0.13-0.99C75,32.74,74.29,31.86,73,31.5"/>
<path d="M72.29,31.35c-0.51-0.08-1.07-0.11-1.63-0.15c-1.04-0.06-2.08-0.24-4.1-0.49c6.49-5.57,12.25-10.54,18.06-15.45
	c0.57-0.48,1.5-0.83,2.24-0.78c7.71,0.49,15.41,1.07,24.18,1.71c-4.15,3.56-7.93,6.13-10.85,9.46c-5.42,6.19-11.83,8.13-19.69,6.33
	c-1.69-0.39-3.5-0.24-5.66-0.36"/>
<rect x="79.58" y="19.73" transform="matrix(-0.5732 -0.8194 0.8194 -0.5732 103.3658 108.525)" class="st2" width="0.73" height="15.22"/>
<circle class="st2" cx="86.48" cy="22.82" r="0.46"/>
</svg>
